<mxfile host="app.diagrams.net" modified="2023-06-15T00:57:00.116Z" agent="5.0 (Macintosh; Intel Mac OS X 10_15_7) AppleWebKit/537.36 (KHTML, like Gecko) Chrome/114.0.0.0 Safari/537.36" etag="efjTPo61Tq0NuC67xgJo" version="20.0.4" type="github">
  <diagram id="hkpJef_u4oI02WK_dS5f" name="Page-1">
    <mxGraphModel dx="771" dy="571" grid="1" gridSize="10" guides="1" tooltips="1" connect="1" arrows="1" fold="1" page="1" pageScale="1" pageWidth="827" pageHeight="1169" math="0" shadow="0">
      <root>
        <mxCell id="0" />
        <mxCell id="1" parent="0" />
        <mxCell id="rSB0yA_NbM0v-tFvKZYE-5" value="Dompute Backend" style="swimlane;fontFamily=Comic Sans MS;" vertex="1" parent="1">
          <mxGeometry x="185" y="350" width="485" height="250" as="geometry" />
        </mxCell>
        <mxCell id="rSB0yA_NbM0v-tFvKZYE-3" value="GateWay" style="rounded=1;whiteSpace=wrap;html=1;fillColor=#b0e3e6;strokeColor=#0e8088;fontFamily=Comic Sans MS;" vertex="1" parent="rSB0yA_NbM0v-tFvKZYE-5">
          <mxGeometry x="39" y="40" width="181" height="40" as="geometry" />
        </mxCell>
        <mxCell id="rSB0yA_NbM0v-tFvKZYE-6" value="Log" style="rounded=1;whiteSpace=wrap;html=1;fontFamily=Comic Sans MS;fillColor=#f5f5f5;fontColor=#333333;strokeColor=#666666;" vertex="1" parent="rSB0yA_NbM0v-tFvKZYE-5">
          <mxGeometry x="425" y="40" width="30" height="190" as="geometry" />
        </mxCell>
        <mxCell id="rSB0yA_NbM0v-tFvKZYE-7" value="PostgreSQL" style="rounded=1;whiteSpace=wrap;html=1;fontFamily=Comic Sans MS;fillColor=#fad9d5;strokeColor=#ae4132;" vertex="1" parent="rSB0yA_NbM0v-tFvKZYE-5">
          <mxGeometry x="38" y="140" width="122" height="40" as="geometry" />
        </mxCell>
        <mxCell id="rSB0yA_NbM0v-tFvKZYE-8" value="Web Service" style="rounded=1;whiteSpace=wrap;html=1;fontFamily=Comic Sans MS;fillColor=#dae8fc;strokeColor=#6c8ebf;" vertex="1" parent="rSB0yA_NbM0v-tFvKZYE-5">
          <mxGeometry x="255" y="40" width="155" height="40" as="geometry" />
        </mxCell>
        <mxCell id="rSB0yA_NbM0v-tFvKZYE-9" value="API Service" style="rounded=1;whiteSpace=wrap;html=1;fontFamily=Comic Sans MS;fillColor=#b1ddf0;strokeColor=#10739e;" vertex="1" parent="rSB0yA_NbM0v-tFvKZYE-5">
          <mxGeometry x="39" y="90" width="371" height="40" as="geometry" />
        </mxCell>
        <mxCell id="rSB0yA_NbM0v-tFvKZYE-10" value="Redis" style="rounded=1;whiteSpace=wrap;html=1;fontFamily=Comic Sans MS;fillColor=#fad7ac;strokeColor=#b46504;" vertex="1" parent="rSB0yA_NbM0v-tFvKZYE-5">
          <mxGeometry x="176" y="140" width="105" height="40" as="geometry" />
        </mxCell>
        <mxCell id="rSB0yA_NbM0v-tFvKZYE-20" value="Message Bus" style="rounded=1;whiteSpace=wrap;html=1;fontFamily=Comic Sans MS;fillColor=#d5e8d4;strokeColor=#82b366;" vertex="1" parent="rSB0yA_NbM0v-tFvKZYE-5">
          <mxGeometry x="295" y="140" width="115" height="40" as="geometry" />
        </mxCell>
        <mxCell id="rSB0yA_NbM0v-tFvKZYE-22" value="Task Scheduler" style="rounded=1;whiteSpace=wrap;html=1;fontFamily=Comic Sans MS;fillColor=#e1d5e7;strokeColor=#9673a6;" vertex="1" parent="rSB0yA_NbM0v-tFvKZYE-5">
          <mxGeometry x="38" y="190" width="372" height="40" as="geometry" />
        </mxCell>
        <mxCell id="rSB0yA_NbM0v-tFvKZYE-11" value="GPU Miner" style="swimlane;fontFamily=Comic Sans MS;" vertex="1" parent="1">
          <mxGeometry x="185" y="620" width="135" height="120" as="geometry" />
        </mxCell>
        <mxCell id="rSB0yA_NbM0v-tFvKZYE-12" value="GPU Cluster" style="rounded=1;whiteSpace=wrap;html=1;fontFamily=Comic Sans MS;fillColor=#f9f7ed;strokeColor=#36393d;" vertex="1" parent="rSB0yA_NbM0v-tFvKZYE-11">
          <mxGeometry x="15" y="40" width="105" height="50" as="geometry" />
        </mxCell>
        <mxCell id="rSB0yA_NbM0v-tFvKZYE-15" value="GPU Miner" style="swimlane;fontFamily=Comic Sans MS;" vertex="1" parent="1">
          <mxGeometry x="361" y="620" width="135" height="120" as="geometry" />
        </mxCell>
        <mxCell id="rSB0yA_NbM0v-tFvKZYE-16" value="GPU Cluster" style="rounded=1;whiteSpace=wrap;html=1;fontFamily=Comic Sans MS;fillColor=#f9f7ed;strokeColor=#36393d;" vertex="1" parent="rSB0yA_NbM0v-tFvKZYE-15">
          <mxGeometry x="15" y="40" width="105" height="50" as="geometry" />
        </mxCell>
        <mxCell id="rSB0yA_NbM0v-tFvKZYE-17" value="GPU Miner" style="swimlane;fontFamily=Comic Sans MS;" vertex="1" parent="1">
          <mxGeometry x="535" y="620" width="135" height="120" as="geometry">
            <mxRectangle x="535" y="620" width="100" height="30" as="alternateBounds" />
          </mxGeometry>
        </mxCell>
        <mxCell id="rSB0yA_NbM0v-tFvKZYE-18" value="GPU Cluster" style="rounded=1;whiteSpace=wrap;html=1;fontFamily=Comic Sans MS;fillColor=#f9f7ed;strokeColor=#36393d;" vertex="1" parent="rSB0yA_NbM0v-tFvKZYE-17">
          <mxGeometry x="15" y="40" width="105" height="50" as="geometry" />
        </mxCell>
      </root>
    </mxGraphModel>
  </diagram>
</mxfile>
